<?xml version="1.0" standalone="no"?>
<!DOCTYPE svg PUBLIC "-//W3C//DTD SVG 20010904//EN"
 "http://www.w3.org/TR/2001/REC-SVG-20010904/DTD/svg10.dtd">
<svg version="1.0" xmlns="http://www.w3.org/2000/svg"
 width="637.000000pt" height="567.000000pt" viewBox="0 0 637.000000 567.000000"
 preserveAspectRatio="xMidYMid meet">
<g transform="translate(0.000000,567.000000) scale(0.100000,-0.100000)"
fill="none" stroke="#000000">
<path d="M3480 5550 c0 -26 5 -26 -312 2 l-137 12 -35 -35 -34 -36 -213 -7
c-117 -3 -218 -11 -223 -16 -6 -6 -36 -10 -68 -10 -32 0 -58 -4 -58 -10 0 -5
-13 -10 -30 -10 -19 0 -30 -5 -30 -14 0 -8 -10 -16 -22 -18 -13 -2 -27 -13
-33 -25 -7 -16 -18 -23 -37 -23 -18 0 -28 -5 -28 -15 0 -17 -30 -35 -59 -35
-15 0 -21 -6 -21 -22 0 -14 -23 -44 -63 -82 -84 -81 -135 -115 -188 -124 -39
-7 -44 -11 -47 -37 -5 -40 -17 -53 -63 -67 -30 -8 -39 -16 -39 -33 0 -13 -9
-26 -25 -33 -14 -7 -27 -23 -31 -39 -3 -15 -12 -42 -20 -60 -8 -17 -14 -36
-14 -42 0 -6 -13 -17 -30 -26 -16 -9 -30 -22 -30 -30 0 -8 -4 -15 -10 -15 -6
0 -10 -26 -10 -58 0 -53 -4 -63 -49 -127 -27 -39 -62 -85 -78 -104 -15 -19
-31 -42 -35 -52 -5 -13 -17 -19 -38 -19 -22 0 -30 -5 -30 -18 0 -10 -9 -25
-20 -35 -13 -11 -20 -29 -20 -52 0 -32 -2 -35 -30 -35 -25 0 -30 -4 -30 -25 0
-14 -4 -25 -8 -25 -4 0 -6 -30 -4 -68 4 -74 -5 -90 -63 -109 -17 -6 -37 -23
-48 -44 -29 -53 -40 -60 -106 -66 -51 -5 -61 -9 -61 -24 0 -16 -8 -19 -50 -19
l-50 0 0 -45 c0 -38 -3 -45 -20 -45 -13 0 -20 -7 -20 -20 0 -11 -7 -20 -15
-20 -31 0 -43 -60 -48 -250 -3 -102 -3 -175 0 -162 3 15 12 22 29 22 22 0 24
4 24 45 l0 45 55 0 55 0 0 -55 c0 -48 -2 -55 -20 -55 -17 0 -20 -7 -20 -45 l0
-45 -55 0 c-52 0 -55 -1 -55 -25 0 -14 -8 -29 -20 -35 -11 -6 -20 -17 -20 -25
0 -8 -7 -15 -15 -15 -8 0 -15 -5 -15 -12 0 -6 -6 -19 -14 -27 -15 -18 -28
-161 -15 -161 5 0 9 -18 9 -39 0 -22 5 -43 10 -46 6 -3 10 -17 10 -31 0 -37
16 -61 45 -68 14 -4 25 -11 25 -16 0 -6 14 -10 30 -10 28 0 30 -2 30 -40 0
-33 4 -40 19 -40 19 0 23 -11 37 -115 4 -22 10 -44 15 -49 5 -6 9 -20 9 -31 0
-12 11 -31 25 -43 14 -12 25 -29 25 -37 0 -8 5 -15 10 -15 6 0 10 -9 10 -20 0
-11 7 -20 15 -20 9 0 15 -9 15 -25 0 -24 2 -25 71 -25 l72 0 -7 -92 c-4 -58
-2 -125 5 -180 12 -84 14 -87 41 -93 15 -4 28 -11 28 -17 0 -23 51 -77 79 -83
17 -4 33 -15 36 -26 4 -10 14 -19 24 -19 10 0 25 -7 32 -16 24 -29 93 -68 97
-55 2 6 26 11 58 11 l54 0 0 -60 c0 -33 4 -60 10 -60 6 0 10 -11 10 -24 0 -14
4 -27 9 -31 5 -3 12 -18 16 -34 3 -16 15 -37 26 -47 14 -12 19 -30 19 -65 0
-43 3 -49 25 -55 21 -5 25 -12 25 -40 0 -28 5 -36 28 -46 97 -39 112 -56 112
-127 0 -21 6 -44 14 -51 8 -6 16 -24 18 -38 2 -19 13 -31 35 -42 22 -10 33
-22 33 -37 0 -13 4 -23 8 -23 16 0 91 -76 101 -103 6 -15 17 -27 25 -27 15 0
59 -71 70 -114 5 -19 13 -26 30 -26 19 0 26 -7 31 -30 4 -17 11 -30 16 -30 5
0 9 -7 9 -15 0 -8 9 -15 20 -15 11 0 20 -4 20 -9 0 -6 14 -30 30 -54 17 -25
30 -52 30 -61 0 -9 5 -16 10 -16 6 0 10 -9 10 -20 0 -11 5 -20 10 -20 6 0 10
5 10 10 0 7 30 10 83 9 73 -2 88 1 140 27 115 58 127 64 127 74 0 6 11 10 25
10 14 0 25 3 25 8 0 4 14 13 31 21 32 14 79 56 79 71 0 10 42 17 181 30 110
10 139 16 139 31 0 5 7 9 15 9 8 0 15 9 15 20 0 13 7 20 18 20 30 0 70 24 81
47 6 13 17 23 24 23 8 0 30 15 49 32 32 31 48 44 121 99 15 11 27 27 27 34 0
8 9 17 20 20 18 6 20 15 20 91 l0 84 35 0 c28 0 35 4 35 19 0 16 9 19 75 23
66 3 77 6 92 28 10 14 41 48 70 76 52 50 53 53 53 108 0 56 0 56 30 56 l30 0
0 65 c0 51 3 65 15 65 8 0 15 7 15 15 0 9 9 15 25 15 23 0 25 4 25 41 0 32 4
42 19 46 17 4 20 18 26 109 6 78 11 104 21 104 10 0 14 14 14 50 0 35 4 50 14
50 13 0 26 84 26 173 0 26 4 37 15 37 9 0 15 9 15 25 0 20 6 25 35 31 26 4 35
11 35 25 0 11 7 22 15 25 22 9 18 34 -5 34 -18 0 -20 7 -20 55 0 30 5 55 10
55 6 0 10 33 10 79 0 114 7 139 40 146 16 4 30 15 33 26 4 16 0 19 -34 19
l-39 0 0 55 0 55 55 0 c54 0 55 0 55 -30 0 -29 1 -30 50 -30 49 0 50 1 50 30
0 30 1 30 55 30 l55 0 0 -35 c0 -24 5 -35 15 -35 12 0 15 15 15 75 l0 75 55 0
55 0 0 -105 c0 -104 0 -105 -24 -105 -20 0 -24 -6 -30 -40 -4 -26 -11 -40 -21
-40 -11 0 -15 -11 -15 -40 0 -38 -2 -40 -30 -40 -27 0 -30 -3 -30 -30 0 -20
-5 -30 -15 -30 -8 0 -15 -4 -15 -10 0 -5 -9 -10 -20 -10 -17 0 -18 -3 -10 -26
6 -14 10 -57 10 -95 0 -62 2 -69 20 -69 17 0 20 7 20 40 l0 40 55 0 55 0 0
-55 c0 -52 1 -55 25 -55 24 0 25 -2 25 -70 0 -68 1 -70 25 -70 24 0 25 -3 25
-55 0 -42 -4 -55 -15 -55 -11 0 -13 -8 -8 -32 3 -18 10 -34 15 -36 4 -2 9 -29
9 -60 1 -43 3 -50 8 -27 6 29 9 30 64 33 52 3 57 1 57 -18 0 -15 6 -20 25 -20
24 0 25 -3 25 -54 0 -34 -5 -56 -12 -59 -9 -4 -10 -8 -2 -14 6 -4 17 -33 24
-63 7 -30 19 -68 26 -85 l13 -30 1 43 c0 41 1 42 35 42 24 0 35 5 35 15 0 12
13 15 55 15 l55 0 0 -55 0 -55 -35 0 c-24 0 -35 -5 -35 -15 0 -12 -13 -15 -55
-15 -42 0 -55 -3 -55 -15 0 -13 13 -14 84 -9 l83 7 7 -57 c5 -39 12 -56 22
-56 9 0 14 -11 14 -30 0 -23 5 -30 19 -30 16 0 19 -12 25 -102 7 -107 0 -198
-15 -198 -5 0 -9 -22 -9 -50 0 -47 -2 -50 -25 -50 -18 0 -25 -5 -25 -19 0 -10
-7 -24 -15 -31 -8 -7 -15 -18 -15 -26 0 -17 -60 -143 -71 -150 -5 -3 -9 -18
-9 -35 0 -16 -4 -29 -10 -29 -6 0 -10 -27 -10 -60 0 -52 -2 -60 -19 -60 -37 0
-51 -12 -51 -41 0 -16 -4 -29 -10 -29 -5 0 -10 -9 -10 -20 0 -11 -4 -20 -10
-20 -5 0 -10 -11 -10 -25 0 -15 -6 -25 -14 -25 -8 0 -18 -9 -21 -20 -3 -11
-17 -23 -31 -26 -17 -4 -24 -13 -24 -30 0 -20 -5 -24 -29 -24 -27 0 -30 -3
-33 -37 -3 -33 -7 -39 -35 -47 -29 -9 -43 -25 -57 -68 -2 -9 -29 -28 -58 -42
l-53 -26 848 0 847 0 0 260 c0 167 -4 260 -10 260 -5 0 -10 -4 -10 -10 0 -5
-25 -10 -55 -10 -48 0 -55 2 -55 20 0 15 -7 20 -25 20 -16 0 -40 15 -66 41
-22 22 -54 45 -70 51 -18 6 -29 17 -29 29 0 10 -6 19 -13 19 -8 0 -60 45 -117
100 -56 55 -125 116 -151 136 -44 32 -49 40 -49 75 0 32 -3 39 -20 39 -13 0
-20 7 -20 20 0 16 -7 20 -30 20 -23 0 -30 4 -30 20 0 11 -7 20 -15 20 -12 0
-15 13 -15 55 0 48 2 55 20 55 11 0 20 7 20 15 0 8 20 25 45 37 27 13 45 29
45 39 0 9 7 19 15 23 8 3 15 13 15 22 0 9 9 27 20 41 15 19 20 41 20 83 0 71
20 122 60 152 37 27 60 70 60 113 0 19 12 50 30 76 21 32 30 56 30 87 l0 42
-40 0 -40 0 0 53 0 52 -48 19 c-61 25 -70 32 -88 74 -32 78 -2 203 52 216 16
4 24 14 24 27 0 47 47 98 91 99 33 0 49 17 49 52 0 15 9 37 20 48 11 11 22 32
26 47 4 16 17 48 29 73 43 84 61 149 47 170 -7 11 -12 35 -12 54 0 18 -7 46
-15 62 -8 16 -17 48 -21 71 -4 28 -12 44 -24 48 -17 5 -30 64 -30 143 0 20 -6
35 -15 38 -10 4 -15 20 -15 50 0 33 -5 46 -20 54 -12 6 -20 21 -20 35 0 16 -6
25 -15 25 -8 0 -15 6 -15 14 0 8 -16 23 -35 35 -36 21 -55 54 -55 97 0 18 -8
27 -27 34 -16 6 -36 15 -45 20 -10 6 -29 10 -43 10 -14 0 -33 9 -42 20 -10 11
-25 20 -35 20 -10 0 -20 10 -24 25 -4 16 -13 25 -26 25 -11 0 -31 9 -45 20
-14 11 -31 20 -38 20 -7 0 -35 24 -63 53 -62 63 -80 77 -118 97 -25 14 -29 22
-32 67 -3 47 -5 52 -31 58 -30 6 -41 18 -106 103 -21 28 -42 52 -45 52 -4 0
-12 11 -18 25 -7 14 -20 25 -31 25 -19 0 -51 36 -64 72 -3 10 -17 20 -30 23
-18 5 -26 15 -30 41 -3 18 -17 49 -31 67 -14 19 -26 46 -26 60 0 20 -5 27 -19
27 -16 0 -20 8 -23 38 -2 27 -9 40 -25 47 -16 7 -24 21 -29 52 -4 27 -12 44
-23 48 -9 3 -30 26 -47 52 -39 64 -91 121 -126 139 -19 10 -28 22 -28 39 0 14
-4 25 -10 25 -5 0 -10 11 -10 25 0 21 -5 25 -29 25 -20 0 -34 8 -45 25 -9 14
-23 25 -31 25 -8 0 -15 9 -15 20 0 13 -7 20 -20 20 -15 0 -20 7 -20 25 0 21
-5 25 -30 25 -23 0 -30 5 -30 19 0 10 -7 21 -15 25 -8 3 -15 14 -15 24 0 16
-10 20 -64 25 -47 4 -76 14 -112 37 -28 17 -61 30 -80 30 -42 0 -64 9 -64 26
0 9 -11 14 -29 14 -16 0 -34 6 -40 14 -6 7 -26 16 -44 20 -17 4 -49 18 -69 31
-21 14 -45 25 -53 25 -18 0 -93 36 -116 56 -8 8 -37 17 -62 20 -44 6 -47 5
-47 -16z m-474 -229 c11 -28 12 -29 108 -33 68 -3 100 -8 106 -18 7 -11 39
-12 174 -6 141 5 166 4 166 -8 0 -8 14 -28 31 -45 26 -26 38 -31 80 -31 48 0
49 -1 49 -29 0 -17 5 -33 10 -36 6 -3 10 3 10 14 0 18 6 21 45 21 25 0 45 5
45 10 0 15 110 13 114 -2 3 -7 7 -25 10 -40 6 -27 9 -28 66 -28 53 0 60 -2 60
-19 0 -13 8 -21 23 -23 19 -3 22 -10 25 -60 l3 -58 39 0 40 0 0 -55 c0 -53 -1
-55 -26 -55 -20 0 -25 -4 -20 -16 3 -9 6 -24 6 -35 0 -15 7 -19 35 -19 l35 0
0 -60 0 -60 -30 0 c-20 0 -30 -5 -30 -15 0 -8 -4 -15 -9 -15 -16 0 1 -48 20
-53 16 -4 19 -14 19 -56 l0 -51 35 0 c31 0 35 -3 35 -25 0 -16 6 -25 15 -25
12 0 15 -13 15 -55 l0 -55 -50 0 c-49 0 -50 -1 -50 -30 0 -16 -4 -30 -10 -30
-16 0 -12 -86 5 -100 8 -7 15 -23 15 -36 0 -19 5 -24 25 -24 22 0 25 -4 25
-36 0 -19 7 -42 15 -50 17 -17 20 -91 6 -141 -7 -24 -6 -33 5 -37 20 -8 19
-102 -1 -122 -9 -9 -15 -34 -15 -60 l0 -44 50 0 50 0 0 -53 c0 -29 -5 -58 -10
-63 -6 -6 -13 -34 -17 -62 -5 -49 -7 -52 -34 -52 -28 0 -29 -2 -29 -45 0 -41
-2 -45 -25 -45 -23 0 -25 -4 -25 -45 0 -25 5 -45 10 -45 6 0 10 11 10 25 0 24
3 25 54 25 57 0 66 -8 66 -54 0 -25 30 -66 49 -66 7 0 11 -21 11 -55 l0 -55
-35 0 c-35 0 -35 0 -35 -45 l0 -45 -55 0 c-52 0 -55 1 -55 25 0 21 -5 25 -30
25 -23 0 -30 4 -30 20 0 11 -4 20 -10 20 -5 0 -10 -9 -10 -20 0 -16 -7 -20
-35 -20 -21 0 -35 -5 -35 -12 0 -9 17 -12 60 -10 56 4 60 2 71 -22 7 -14 15
-26 18 -26 3 0 23 -15 44 -33 34 -32 37 -38 37 -90 l0 -57 -56 0 c-31 0 -61 6
-68 13 -50 48 -80 69 -84 59 -2 -7 -15 -12 -28 -12 -17 0 -24 -6 -24 -20 0
-11 -7 -20 -15 -20 -12 0 -11 -7 3 -47 9 -27 20 -49 25 -51 4 -2 7 -12 7 -23
0 -16 7 -19 45 -19 33 0 45 4 45 15 0 12 13 15 55 15 l55 0 0 -55 c0 -52 -1
-55 -25 -55 -24 0 -25 -2 -25 -70 0 -40 4 -70 10 -70 6 0 10 -25 10 -55 l0
-55 -35 0 c-24 0 -35 -5 -35 -15 0 -8 -8 -15 -19 -15 -16 0 -19 -11 -24 -82
-4 -46 -11 -84 -17 -86 -5 -2 -10 -19 -10 -38 0 -19 -4 -34 -10 -34 -5 0 -10
-22 -10 -49 0 -68 -10 -111 -26 -111 -8 0 -14 -4 -14 -9 0 -6 -19 -11 -42 -13
-36 -2 -44 -7 -46 -25 -2 -13 -10 -23 -18 -23 -8 0 -14 -9 -14 -20 0 -11 -6
-20 -12 -20 -8 -1 -6 -6 5 -14 12 -10 17 -27 17 -65 l0 -51 -45 0 c-45 0 -45
0 -45 -35 0 -31 -3 -35 -27 -36 -16 0 -22 -3 -15 -6 7 -3 12 -25 12 -59 l0
-54 -54 0 -55 0 -4 43 c-3 40 -4 40 -5 -10 -2 -40 -6 -53 -17 -53 -8 0 -15 -7
-15 -15 0 -10 10 -15 30 -15 30 0 30 -1 30 -55 l0 -55 -55 0 c-30 0 -55 5 -55
10 0 6 -4 10 -10 10 -5 0 -10 -16 -10 -35 0 -24 -5 -35 -15 -35 -11 0 -15 -12
-15 -45 l0 -45 -55 0 c-52 0 -55 1 -55 25 0 14 -6 25 -12 25 -10 0 -12 -18
-10 -65 l4 -65 -36 0 c-25 0 -36 -4 -36 -15 0 -8 -4 -15 -10 -15 -5 0 -10 -11
-10 -24 0 -20 -6 -24 -40 -30 -22 -3 -40 -11 -40 -16 0 -6 -13 -10 -30 -10
-25 0 -30 -4 -30 -25 0 -14 -4 -25 -10 -25 -5 0 -10 -9 -10 -20 0 -18 -7 -20
-55 -20 l-55 0 0 55 c0 30 5 55 10 55 6 0 10 11 10 25 0 14 6 25 13 25 8 0 7
4 -3 10 -8 5 -30 10 -47 10 -29 0 -33 3 -34 28 -2 25 -2 25 -6 3 -3 -13 0 -28
6 -34 16 -16 14 -117 -1 -117 -10 0 -12 -19 -10 -70 l4 -70 -66 0 c-64 0 -66
-1 -66 -25 0 -24 -3 -25 -55 -25 -30 0 -55 -4 -55 -10 0 -5 -13 -10 -30 -10
-27 0 -30 -3 -30 -30 0 -28 -3 -30 -35 -30 -23 0 -35 -5 -35 -14 0 -17 -51
-26 -147 -26 l-73 0 0 35 0 35 -50 0 c-49 0 -50 1 -50 30 0 21 -5 30 -16 30
-13 0 -15 11 -12 65 2 54 0 65 -13 65 -9 0 -24 -9 -34 -20 -14 -15 -31 -20
-72 -20 l-53 0 0 40 c0 29 -4 40 -15 40 -8 0 -15 7 -15 15 0 8 -4 15 -10 15
-6 0 -10 27 -10 60 0 36 -4 60 -11 60 -29 0 -44 35 -48 112 -2 58 -7 78 -17
78 -8 0 -14 3 -14 8 0 4 -27 5 -60 4 l-60 -4 0 31 c0 29 -3 31 -35 31 l-35 0
0 55 c0 30 4 55 9 55 5 0 11 11 13 25 4 17 1 25 -8 25 -10 0 -14 13 -14 39 0
22 -5 41 -10 43 -25 8 -24 168 0 168 9 0 72 39 97 60 7 5 33 10 58 10 25 0 45
4 45 9 0 5 8 12 18 14 9 3 -9 5 -40 6 -43 1 -58 5 -58 15 0 9 -15 15 -45 18
-41 3 -44 1 -47 -22 -3 -23 -8 -25 -60 -28 l-58 -3 0 56 c0 48 3 58 20 62 36
9 21 23 -25 23 -32 0 -45 4 -45 14 0 8 -5 16 -11 18 -5 2 -13 22 -16 46 -3 26
-11 42 -19 42 -8 0 -14 9 -14 20 0 11 -4 20 -10 20 -5 0 -10 7 -10 15 0 8 -4
15 -10 15 -5 0 -10 23 -10 50 0 38 -4 50 -15 50 -10 0 -15 10 -15 30 0 17 -4
30 -10 30 -15 0 -13 107 3 113 7 3 5 6 -5 6 -10 1 -18 8 -18 17 0 9 -7 22 -15
28 -12 9 -16 68 -20 371 -6 416 -11 475 -39 475 -14 0 -26 69 -26 155 0 40 5
56 25 77 20 22 25 37 25 83 0 30 4 55 9 55 11 0 16 42 35 310 18 249 24 290
42 290 9 0 14 12 14 35 0 19 4 35 10 35 5 0 12 16 16 35 3 19 12 35 19 35 8 0
14 25 18 75 5 56 12 81 27 97 11 12 20 34 20 49 0 14 7 32 15 39 8 7 15 21 15
31 0 10 9 24 20 31 11 7 20 21 20 30 0 13 8 18 29 18 29 0 41 18 41 63 0 10
16 34 35 54 20 20 35 46 35 60 0 16 6 23 20 23 11 0 41 21 66 46 25 25 57 49
70 54 13 5 28 20 33 33 11 29 28 42 65 51 16 4 30 15 33 26 3 11 10 20 17 20
6 0 24 11 40 25 16 14 37 25 46 25 10 0 29 9 43 20 14 11 31 20 39 20 7 0 22
9 31 21 15 17 28 20 81 18 34 -1 67 0 72 3 5 3 60 11 122 18 61 7 112 16 112
21 0 7 49 12 175 17 47 2 51 0 61 -27z m1348 -443 c3 -13 6 -44 6 -70 l0 -48
-54 0 c-61 0 -66 6 -66 93 l0 47 54 0 c47 0 54 -3 60 -22z m204 -1170 c2 -43
-1 -68 -8 -68 -5 0 -10 -13 -10 -30 0 -30 -1 -30 -55 -30 l-55 0 0 93 c0 52 3
97 7 101 4 4 32 6 63 4 l55 -3 3 -67z m-3548 -33 l0 -45 60 0 c53 0 60 -2 60
-20 0 -25 18 -26 35 -3 9 13 32 18 84 21 l71 4 0 -28 c0 -16 3 -66 7 -111 l6
-83 -92 0 c-84 0 -91 -1 -91 -20 0 -11 -4 -20 -10 -20 -5 0 -10 -9 -10 -20 0
-17 -7 -20 -52 -20 -29 0 -70 3 -92 7 l-38 6 4 68 4 69 -53 0 -53 0 0 65 c0
54 3 67 20 77 15 10 20 24 20 55 l0 43 60 0 60 0 0 -45z m3523 -385 c-1 -55
-6 -96 -13 -98 -5 -2 -10 -12 -10 -23 0 -16 -7 -19 -55 -19 l-55 0 0 90 c0 53
4 90 10 90 6 0 10 14 10 30 l0 31 58 -3 57 -3 -2 -95z m1155 84 l52 -7 0 -46
c0 -25 -3 -63 -6 -83 l-7 -38 -53 0 c-30 0 -54 5 -54 10 0 6 -22 10 -50 10
l-50 0 0 55 c0 40 4 57 15 61 8 3 17 14 20 25 7 21 38 24 133 13z m-714 -100
l46 -7 0 -58 0 -59 -55 0 c-30 0 -55 5 -55 10 0 6 -18 10 -40 10 l-40 0 0 55
0 55 49 0 c26 0 69 -3 95 -6z m-3826 -71 c-3 -51 -6 -58 -25 -61 -13 -2 -23
-10 -23 -18 0 -11 -15 -14 -60 -14 l-60 0 0 -49 0 -48 -52 -7 c-29 -3 -70 -6
-90 -6 l-38 0 0 54 0 53 38 7 c20 3 61 6 90 6 l52 0 0 50 c0 43 3 50 20 50 11
0 20 6 20 14 0 19 15 24 78 25 l53 1 -3 -57z m4682 -98 c0 -54 0 -55 -30 -55
-29 0 -30 -1 -30 -50 0 -43 -3 -50 -20 -50 -11 0 -20 -7 -20 -15 0 -12 -14
-15 -65 -15 l-65 0 0 35 c0 33 -2 35 -35 35 l-35 0 0 55 0 55 55 0 55 0 1 -37
c1 -21 3 -30 6 -20 3 12 15 17 39 17 l34 0 0 50 0 50 55 0 55 0 0 -55z m-640
-107 c0 -18 -3 -63 -7 -100 l-6 -68 -53 0 -54 0 0 33 c0 17 3 62 7 100 l6 67
53 0 54 0 0 -32z m-4010 -103 c0 -48 -2 -55 -20 -55 -11 0 -20 -4 -20 -10 0
-5 -9 -10 -20 -10 -11 0 -20 -7 -20 -15 0 -10 -10 -15 -30 -15 -25 0 -30 -4
-30 -25 0 -24 3 -25 55 -25 l56 0 -3 -62 -3 -63 -60 0 -60 0 -3 38 c-3 37 -4
37 -48 37 l-44 0 0 60 0 60 30 0 c29 0 30 2 30 45 0 38 3 45 20 45 11 0 20 7
20 15 0 8 9 15 20 15 11 0 20 5 20 10 0 6 25 10 55 10 l55 0 0 -55z m3830 -10
c0 -8 5 -15 10 -15 6 0 10 -25 10 -55 l0 -55 -55 0 c-42 0 -55 3 -55 15 0 8
-4 15 -10 15 -5 0 -10 25 -10 55 l0 55 55 0 c42 0 55 -3 55 -15z m-3800 -460
l0 -65 -40 0 c-29 0 -40 -4 -40 -15 0 -13 -11 -15 -57 -13 l-58 3 -3 58 -3 57
41 0 c33 0 40 3 40 20 0 18 7 20 60 20 l60 0 0 -65z m4388 -207 c3 -46 5 -48
32 -48 40 0 60 -32 60 -97 l0 -53 -57 0 c-53 0 -59 2 -70 27 -7 15 -13 44 -13
65 0 37 -1 38 -35 38 l-35 0 0 60 0 61 58 -3 57 -3 3 -47z"/>
<path d="M2200 2060 c0 -27 -4 -50 -10 -50 -5 0 -10 -7 -10 -15 0 -8 -14 -17
-35 -21 -34 -6 -35 -7 -35 -55 0 -42 -3 -49 -20 -49 -16 0 -20 -7 -20 -35 0
-19 5 -35 11 -35 19 0 39 28 39 55 0 26 55 89 110 127 27 19 134 26 144 9 3
-5 35 -12 71 -16 l65 -7 0 -49 c0 -39 3 -49 17 -49 9 0 24 -6 32 -14 9 -7 26
-17 39 -20 20 -7 22 -4 22 31 0 21 3 48 6 61 4 15 2 22 -8 22 -8 0 -27 13 -43
29 -15 17 -37 31 -49 33 -16 2 -22 11 -24 36 -3 31 -5 32 -48 32 -27 0 -52 -6
-60 -15 -10 -10 -35 -15 -75 -15 -52 0 -59 2 -59 20 0 13 -7 20 -20 20 -11 0
-20 5 -20 10 0 6 -4 10 -10 10 -5 0 -10 -22 -10 -50z"/>
<path d="M2728 1798 c7 -7 12 -38 12 -70 l0 -58 64 0 c35 0 66 4 68 10 2 5 51
12 111 16 93 6 107 9 107 25 0 9 6 19 13 22 17 6 7 14 -30 22 -31 6 -33 5 -33
-19 0 -25 -3 -26 -55 -26 -54 0 -55 1 -55 29 0 35 -16 41 -112 41 -39 0 -68 4
-68 10 0 6 -8 10 -17 10 -13 0 -14 -3 -5 -12z"/>
<path d="M4560 2184 c-14 -7 -42 -14 -62 -14 l-36 0 -8 -101 c-4 -63 -12 -105
-20 -114 -8 -7 -14 -18 -14 -23 0 -6 -5 -12 -10 -14 -7 -2 -8 -27 -2 -73 7
-58 10 -65 16 -42 5 15 12 27 17 27 5 0 9 7 9 15 0 8 11 31 25 51 14 21 28 49
31 63 3 14 9 33 15 41 27 43 49 101 57 148 5 28 9 52 8 51 0 -1 -12 -7 -26
-15z"/>
<path d="M1312 508 c-7 -17 -21 -28 -40 -33 -18 -3 -32 -14 -35 -26 -4 -14
-14 -19 -36 -19 -24 0 -31 -4 -31 -20 0 -11 -7 -23 -15 -26 -8 -4 -15 -17 -15
-30 0 -21 -5 -24 -39 -24 -28 0 -44 -6 -53 -19 -8 -10 -31 -29 -53 -42 -22
-12 -55 -35 -73 -51 -18 -15 -39 -28 -47 -28 -8 0 -19 -8 -24 -18 -5 -10 -36
-31 -68 -47 -32 -15 -64 -36 -71 -46 -8 -12 -25 -19 -46 -19 -30 0 -34 -4 -38
-30 l-5 -30 289 0 288 0 0 28 c0 71 77 366 118 448 8 17 12 37 10 45 -4 9 -9
6 -16 -13z"/>
</g>
</svg>
